<?xml version="1.0" encoding="UTF-8" standalone="no"?>
<!DOCTYPE svg PUBLIC "-//W3C//DTD SVG 1.1//EN"
 "http://www.w3.org/Graphics/SVG/1.1/DTD/svg11.dtd">
<!-- Generated by graphviz version 2.38.0 (20140413.2041)
 -->
<!-- Title: %3 Pages: 1 -->
<svg width="4626pt" height="764pt"
 viewBox="0.00 0.00 4625.77 764.00" xmlns="http://www.w3.org/2000/svg" xmlns:xlink="http://www.w3.org/1999/xlink">
<g id="graph0" class="graph" transform="scale(1 1) rotate(0) translate(4 760)">
<title>%3</title>
<polygon fill="white" stroke="none" points="-4,4 -4,-760 4621.77,-760 4621.77,4 -4,4"/>
<!-- [root] azurerm_resource_group.rg -->
<g id="node1" class="node"><title>[root] azurerm_resource_group.rg</title>
<polygon fill="none" stroke="black" points="1010.27,-180 793.271,-180 793.271,-144 1010.27,-144 1010.27,-180"/>
<text text-anchor="middle" x="901.771" y="-158.3" font-family="Times,serif" font-size="14.00">azurerm_resource_group.rg</text>
</g>
<!-- [root] provider.azurerm -->
<g id="node11" class="node"><title>[root] provider.azurerm</title>
<polygon fill="none" stroke="black" points="635.771,-108 506.907,-90 635.771,-72 764.636,-90 635.771,-108"/>
<text text-anchor="middle" x="635.771" y="-86.3" font-family="Times,serif" font-size="14.00">provider.azurerm</text>
</g>
<!-- [root] azurerm_resource_group.rg&#45;&gt;[root] provider.azurerm -->
<g id="edge2" class="edge"><title>[root] azurerm_resource_group.rg&#45;&gt;[root] provider.azurerm</title>
<path fill="none" stroke="black" d="M837.041,-143.966C791.34,-131.939 730.885,-116.03 688.2,-104.797"/>
<polygon fill="black" stroke="black" points="688.854,-101.35 678.293,-102.19 687.073,-108.12 688.854,-101.35"/>
</g>
<!-- [root] local.fqResourceGroup -->
<g id="node12" class="node"><title>[root] local.fqResourceGroup</title>
<ellipse fill="none" stroke="black" cx="927.771" cy="-90" rx="145.674" ry="18"/>
<text text-anchor="middle" x="927.771" y="-86.3" font-family="Times,serif" font-size="14.00">[root] local.fqResourceGroup</text>
</g>
<!-- [root] azurerm_resource_group.rg&#45;&gt;[root] local.fqResourceGroup -->
<g id="edge1" class="edge"><title>[root] azurerm_resource_group.rg&#45;&gt;[root] local.fqResourceGroup</title>
<path fill="none" stroke="black" d="M908.198,-143.697C911.127,-135.813 914.658,-126.304 917.911,-117.546"/>
<polygon fill="black" stroke="black" points="921.217,-118.697 921.418,-108.104 914.655,-116.26 921.217,-118.697"/>
</g>
<!-- [root] var.location -->
<g id="node13" class="node"><title>[root] var.location</title>
<ellipse fill="none" stroke="black" cx="1184.77" cy="-90" rx="93.6835" ry="18"/>
<text text-anchor="middle" x="1184.77" y="-86.3" font-family="Times,serif" font-size="14.00">[root] var.location</text>
</g>
<!-- [root] azurerm_resource_group.rg&#45;&gt;[root] var.location -->
<g id="edge3" class="edge"><title>[root] azurerm_resource_group.rg&#45;&gt;[root] var.location</title>
<path fill="none" stroke="black" d="M970.639,-143.966C1016.12,-132.716 1075.33,-118.069 1119.96,-107.03"/>
<polygon fill="black" stroke="black" points="1120.96,-110.389 1129.83,-104.591 1119.28,-103.594 1120.96,-110.389"/>
</g>
<!-- [root] azurerm_storage_account.stor -->
<g id="node2" class="node"><title>[root] azurerm_storage_account.stor</title>
<polygon fill="none" stroke="black" points="649.771,-612 413.771,-612 413.771,-576 649.771,-576 649.771,-612"/>
<text text-anchor="middle" x="531.771" y="-590.3" font-family="Times,serif" font-size="14.00">azurerm_storage_account.stor</text>
</g>
<!-- [root] azurerm_storage_account.stor&#45;&gt;[root] azurerm_resource_group.rg -->
<g id="edge4" class="edge"><title>[root] azurerm_storage_account.stor&#45;&gt;[root] azurerm_resource_group.rg</title>
<path fill="none" stroke="black" d="M413.506,-587.952C271.962,-580.802 50.3266,-565.658 21.7714,-540 -8.31428,-512.967 2.77143,-491.447 2.77143,-451 2.77143,-451 2.77143,-451 2.77143,-305 2.77143,-226.928 538.58,-184.769 782.894,-169.603"/>
<polygon fill="black" stroke="black" points="783.117,-173.096 792.883,-168.988 782.687,-166.109 783.117,-173.096"/>
</g>
<!-- [root] var.storage_account_tier -->
<g id="node14" class="node"><title>[root] var.storage_account_tier</title>
<ellipse fill="none" stroke="black" cx="185.771" cy="-522" rx="155.173" ry="18"/>
<text text-anchor="middle" x="185.771" y="-518.3" font-family="Times,serif" font-size="14.00">[root] var.storage_account_tier</text>
</g>
<!-- [root] azurerm_storage_account.stor&#45;&gt;[root] var.storage_account_tier -->
<g id="edge5" class="edge"><title>[root] azurerm_storage_account.stor&#45;&gt;[root] var.storage_account_tier</title>
<path fill="none" stroke="black" d="M447.573,-575.966C393.433,-565.012 323.374,-550.839 269.355,-539.91"/>
<polygon fill="black" stroke="black" points="269.959,-536.461 259.463,-537.909 268.57,-543.322 269.959,-536.461"/>
</g>
<!-- [root] var.storage_replication_type -->
<g id="node15" class="node"><title>[root] var.storage_replication_type</title>
<ellipse fill="none" stroke="black" cx="531.771" cy="-522" rx="172.47" ry="18"/>
<text text-anchor="middle" x="531.771" y="-518.3" font-family="Times,serif" font-size="14.00">[root] var.storage_replication_type</text>
</g>
<!-- [root] azurerm_storage_account.stor&#45;&gt;[root] var.storage_replication_type -->
<g id="edge6" class="edge"><title>[root] azurerm_storage_account.stor&#45;&gt;[root] var.storage_replication_type</title>
<path fill="none" stroke="black" d="M531.771,-575.697C531.771,-567.983 531.771,-558.712 531.771,-550.112"/>
<polygon fill="black" stroke="black" points="535.272,-550.104 531.771,-540.104 528.272,-550.104 535.272,-550.104"/>
</g>
<!-- [root] azurerm_subnet.build -->
<g id="node3" class="node"><title>[root] azurerm_subnet.build</title>
<polygon fill="none" stroke="black" points="3177.27,-324 3004.27,-324 3004.27,-288 3177.27,-288 3177.27,-324"/>
<text text-anchor="middle" x="3090.77" y="-302.3" font-family="Times,serif" font-size="14.00">azurerm_subnet.build</text>
</g>
<!-- [root] azurerm_virtual_network.default -->
<g id="node4" class="node"><title>[root] azurerm_virtual_network.default</title>
<polygon fill="none" stroke="black" points="3086.27,-252 2833.27,-252 2833.27,-216 3086.27,-216 3086.27,-252"/>
<text text-anchor="middle" x="2959.77" y="-230.3" font-family="Times,serif" font-size="14.00">azurerm_virtual_network.default</text>
</g>
<!-- [root] azurerm_subnet.build&#45;&gt;[root] azurerm_virtual_network.default -->
<g id="edge7" class="edge"><title>[root] azurerm_subnet.build&#45;&gt;[root] azurerm_virtual_network.default</title>
<path fill="none" stroke="black" d="M3058.73,-287.876C3041.28,-278.554 3019.51,-266.919 3000.83,-256.939"/>
<polygon fill="black" stroke="black" points="3002.41,-253.816 2991.94,-252.19 2999.11,-259.99 3002.41,-253.816"/>
</g>
<!-- [root] var.subnet_cidrs -->
<g id="node16" class="node"><title>[root] var.subnet_cidrs</title>
<ellipse fill="none" stroke="black" cx="3220.77" cy="-234" rx="116.18" ry="18"/>
<text text-anchor="middle" x="3220.77" y="-230.3" font-family="Times,serif" font-size="14.00">[root] var.subnet_cidrs</text>
</g>
<!-- [root] azurerm_subnet.build&#45;&gt;[root] var.subnet_cidrs -->
<g id="edge8" class="edge"><title>[root] azurerm_subnet.build&#45;&gt;[root] var.subnet_cidrs</title>
<path fill="none" stroke="black" d="M3122.57,-287.876C3140.27,-278.345 3162.46,-266.397 3181.27,-256.271"/>
<polygon fill="black" stroke="black" points="3183.05,-259.288 3190.19,-251.465 3179.73,-253.125 3183.05,-259.288"/>
</g>
<!-- [root] azurerm_virtual_network.default&#45;&gt;[root] azurerm_resource_group.rg -->
<g id="edge9" class="edge"><title>[root] azurerm_virtual_network.default&#45;&gt;[root] azurerm_resource_group.rg</title>
<path fill="none" stroke="black" d="M2833.12,-231.479C2464.01,-226.743 1392.49,-210.749 1020.4,-180.067"/>
<polygon fill="black" stroke="black" points="1020.66,-176.576 1010.4,-179.224 1020.07,-183.551 1020.66,-176.576"/>
</g>
<!-- [root] var.default_tags -->
<g id="node17" class="node"><title>[root] var.default_tags</title>
<ellipse fill="none" stroke="black" cx="3799.77" cy="-162" rx="114.28" ry="18"/>
<text text-anchor="middle" x="3799.77" y="-158.3" font-family="Times,serif" font-size="14.00">[root] var.default_tags</text>
</g>
<!-- [root] azurerm_virtual_network.default&#45;&gt;[root] var.default_tags -->
<g id="edge10" class="edge"><title>[root] azurerm_virtual_network.default&#45;&gt;[root] var.default_tags</title>
<path fill="none" stroke="black" d="M3086.44,-216.96C3089.58,-216.629 3092.69,-216.308 3095.77,-216 3302.95,-195.266 3545.16,-178.711 3684.69,-169.92"/>
<polygon fill="black" stroke="black" points="3685.21,-173.394 3694.97,-169.274 3684.77,-166.408 3685.21,-173.394"/>
</g>
<!-- [root] var.vnet_cidr -->
<g id="node18" class="node"><title>[root] var.vnet_cidr</title>
<ellipse fill="none" stroke="black" cx="2959.77" cy="-162" rx="100.983" ry="18"/>
<text text-anchor="middle" x="2959.77" y="-158.3" font-family="Times,serif" font-size="14.00">[root] var.vnet_cidr</text>
</g>
<!-- [root] azurerm_virtual_network.default&#45;&gt;[root] var.vnet_cidr -->
<g id="edge11" class="edge"><title>[root] azurerm_virtual_network.default&#45;&gt;[root] var.vnet_cidr</title>
<path fill="none" stroke="black" d="M2959.77,-215.697C2959.77,-207.983 2959.77,-198.712 2959.77,-190.112"/>
<polygon fill="black" stroke="black" points="2963.27,-190.104 2959.77,-180.104 2956.27,-190.104 2963.27,-190.104"/>
</g>
<!-- [root] data.azurerm_client_config.current -->
<g id="node5" class="node"><title>[root] data.azurerm_client_config.current</title>
<polygon fill="none" stroke="black" points="946.771,-612 676.771,-612 676.771,-576 946.771,-576 946.771,-612"/>
<text text-anchor="middle" x="811.771" y="-590.3" font-family="Times,serif" font-size="14.00">data.azurerm_client_config.current</text>
</g>
<!-- [root] data.azurerm_client_config.current&#45;&gt;[root] provider.azurerm -->
<g id="edge12" class="edge"><title>[root] data.azurerm_client_config.current&#45;&gt;[root] provider.azurerm</title>
<path fill="none" stroke="black" d="M788.719,-575.957C777.205,-566.453 763.835,-553.771 754.771,-540 662.84,-400.321 641.762,-192.341 637.071,-118.345"/>
<polygon fill="black" stroke="black" points="640.546,-117.815 636.47,-108.035 633.558,-118.222 640.546,-117.815"/>
</g>
<!-- [root] module.lamp.azurerm_availability_set.vmavset -->
<g id="node6" class="node"><title>[root] module.lamp.azurerm_availability_set.vmavset</title>
<polygon fill="none" stroke="black" points="1175.27,-468 822.271,-468 822.271,-432 1175.27,-432 1175.27,-468"/>
<text text-anchor="middle" x="998.771" y="-446.3" font-family="Times,serif" font-size="14.00">module.lamp.azurerm_availability_set.vmavset</text>
</g>
<!-- [root] module.lamp.azurerm_resource_group.rg -->
<g id="node9" class="node"><title>[root] module.lamp.azurerm_resource_group.rg</title>
<polygon fill="none" stroke="black" points="1000.77,-324 686.771,-324 686.771,-288 1000.77,-288 1000.77,-324"/>
<text text-anchor="middle" x="843.771" y="-302.3" font-family="Times,serif" font-size="14.00">module.lamp.azurerm_resource_group.rg</text>
</g>
<!-- [root] module.lamp.azurerm_availability_set.vmavset&#45;&gt;[root] module.lamp.azurerm_resource_group.rg -->
<g id="edge22" class="edge"><title>[root] module.lamp.azurerm_availability_set.vmavset&#45;&gt;[root] module.lamp.azurerm_resource_group.rg</title>
<path fill="none" stroke="black" d="M876.825,-431.911C858.019,-423.919 840.863,-412.435 828.771,-396 815.566,-378.051 821.661,-352.579 829.688,-333.481"/>
<polygon fill="black" stroke="black" points="832.981,-334.697 833.97,-324.149 826.619,-331.778 832.981,-334.697"/>
</g>
<!-- [root] module.lamp.var.dns_name -->
<g id="node27" class="node"><title>[root] module.lamp.var.dns_name</title>
<ellipse fill="none" stroke="black" cx="1003.77" cy="-378" rx="166.271" ry="18"/>
<text text-anchor="middle" x="1003.77" y="-374.3" font-family="Times,serif" font-size="14.00">[root] module.lamp.var.dns_name</text>
</g>
<!-- [root] module.lamp.azurerm_availability_set.vmavset&#45;&gt;[root] module.lamp.var.dns_name -->
<g id="edge23" class="edge"><title>[root] module.lamp.azurerm_availability_set.vmavset&#45;&gt;[root] module.lamp.var.dns_name</title>
<path fill="none" stroke="black" d="M1000.01,-431.697C1000.56,-423.983 1001.22,-414.712 1001.83,-406.112"/>
<polygon fill="black" stroke="black" points="1005.33,-406.328 1002.55,-396.104 998.346,-405.83 1005.33,-406.328"/>
</g>
<!-- [root] module.lamp.var.number_of_servers -->
<g id="node28" class="node"><title>[root] module.lamp.var.number_of_servers</title>
<ellipse fill="none" stroke="black" cx="1227.77" cy="-306" rx="208.763" ry="18"/>
<text text-anchor="middle" x="1227.77" y="-302.3" font-family="Times,serif" font-size="14.00">[root] module.lamp.var.number_of_servers</text>
</g>
<!-- [root] module.lamp.azurerm_availability_set.vmavset&#45;&gt;[root] module.lamp.var.number_of_servers -->
<g id="edge24" class="edge"><title>[root] module.lamp.azurerm_availability_set.vmavset&#45;&gt;[root] module.lamp.var.number_of_servers</title>
<path fill="none" stroke="black" d="M1106.81,-431.877C1132.31,-424.044 1158.08,-412.631 1178.77,-396 1198.77,-379.932 1211.86,-353.398 1219.44,-333.474"/>
<polygon fill="black" stroke="black" points="1222.74,-334.619 1222.81,-324.024 1216.15,-332.264 1222.74,-334.619"/>
</g>
<!-- [root] module.lamp.azurerm_network_interface.nic -->
<g id="node7" class="node"><title>[root] module.lamp.azurerm_network_interface.nic</title>
<polygon fill="none" stroke="black" points="1531.77,-468 1193.77,-468 1193.77,-432 1531.77,-432 1531.77,-468"/>
<text text-anchor="middle" x="1362.77" y="-446.3" font-family="Times,serif" font-size="14.00">module.lamp.azurerm_network_interface.nic</text>
</g>
<!-- [root] module.lamp.azurerm_public_ip.pip -->
<g id="node8" class="node"><title>[root] module.lamp.azurerm_public_ip.pip</title>
<polygon fill="none" stroke="black" points="1499.27,-396 1226.27,-396 1226.27,-360 1499.27,-360 1499.27,-396"/>
<text text-anchor="middle" x="1362.77" y="-374.3" font-family="Times,serif" font-size="14.00">module.lamp.azurerm_public_ip.pip</text>
</g>
<!-- [root] module.lamp.azurerm_network_interface.nic&#45;&gt;[root] module.lamp.azurerm_public_ip.pip -->
<g id="edge25" class="edge"><title>[root] module.lamp.azurerm_network_interface.nic&#45;&gt;[root] module.lamp.azurerm_public_ip.pip</title>
<path fill="none" stroke="black" d="M1362.77,-431.697C1362.77,-423.983 1362.77,-414.712 1362.77,-406.112"/>
<polygon fill="black" stroke="black" points="1366.27,-406.104 1362.77,-396.104 1359.27,-406.104 1366.27,-406.104"/>
</g>
<!-- [root] module.lamp.var.private_ip_address -->
<g id="node29" class="node"><title>[root] module.lamp.var.private_ip_address</title>
<ellipse fill="none" stroke="black" cx="1724.77" cy="-378" rx="207.963" ry="18"/>
<text text-anchor="middle" x="1724.77" y="-374.3" font-family="Times,serif" font-size="14.00">[root] module.lamp.var.private_ip_address</text>
</g>
<!-- [root] module.lamp.azurerm_network_interface.nic&#45;&gt;[root] module.lamp.var.private_ip_address -->
<g id="edge26" class="edge"><title>[root] module.lamp.azurerm_network_interface.nic&#45;&gt;[root] module.lamp.var.private_ip_address</title>
<path fill="none" stroke="black" d="M1450.86,-431.966C1506.44,-421.219 1578.05,-407.372 1634.11,-396.531"/>
<polygon fill="black" stroke="black" points="1634.88,-399.947 1644.03,-394.612 1633.55,-393.075 1634.88,-399.947"/>
</g>
<!-- [root] module.lamp.var.private_ip_address_allocation -->
<g id="node30" class="node"><title>[root] module.lamp.var.private_ip_address_allocation</title>
<ellipse fill="none" stroke="black" cx="2208.77" cy="-378" rx="258.054" ry="18"/>
<text text-anchor="middle" x="2208.77" y="-374.3" font-family="Times,serif" font-size="14.00">[root] module.lamp.var.private_ip_address_allocation</text>
</g>
<!-- [root] module.lamp.azurerm_network_interface.nic&#45;&gt;[root] module.lamp.var.private_ip_address_allocation -->
<g id="edge27" class="edge"><title>[root] module.lamp.azurerm_network_interface.nic&#45;&gt;[root] module.lamp.var.private_ip_address_allocation</title>
<path fill="none" stroke="black" d="M1531.88,-432.783C1534.87,-432.518 1537.83,-432.257 1540.77,-432 1706.41,-417.52 1895.31,-402.689 2029.87,-392.411"/>
<polygon fill="black" stroke="black" points="2030.16,-395.899 2039.87,-391.648 2029.63,-388.919 2030.16,-395.899"/>
</g>
<!-- [root] module.lamp.var.virtual_network_subnet_id -->
<g id="node31" class="node"><title>[root] module.lamp.var.virtual_network_subnet_id</title>
<ellipse fill="none" stroke="black" cx="2728.77" cy="-378" rx="243.957" ry="18"/>
<text text-anchor="middle" x="2728.77" y="-374.3" font-family="Times,serif" font-size="14.00">[root] module.lamp.var.virtual_network_subnet_id</text>
</g>
<!-- [root] module.lamp.azurerm_network_interface.nic&#45;&gt;[root] module.lamp.var.virtual_network_subnet_id -->
<g id="edge28" class="edge"><title>[root] module.lamp.azurerm_network_interface.nic&#45;&gt;[root] module.lamp.var.virtual_network_subnet_id</title>
<path fill="none" stroke="black" d="M1531.87,-432.616C1534.86,-432.403 1537.83,-432.197 1540.77,-432 1955.71,-404.22 2060.49,-417.943 2475.77,-396 2499.73,-394.734 2524.95,-393.237 2549.81,-391.664"/>
<polygon fill="black" stroke="black" points="2550.3,-395.14 2560.06,-391.01 2549.86,-388.154 2550.3,-395.14"/>
</g>
<!-- [root] module.lamp.azurerm_public_ip.pip&#45;&gt;[root] module.lamp.azurerm_resource_group.rg -->
<g id="edge29" class="edge"><title>[root] module.lamp.azurerm_public_ip.pip&#45;&gt;[root] module.lamp.azurerm_resource_group.rg</title>
<path fill="none" stroke="black" d="M1236.47,-359.966C1158.93,-349.506 1059.61,-336.111 980.254,-325.408"/>
<polygon fill="black" stroke="black" points="980.564,-321.918 970.185,-324.05 979.628,-328.855 980.564,-321.918"/>
</g>
<!-- [root] module.lamp.azurerm_public_ip.pip&#45;&gt;[root] module.lamp.var.number_of_servers -->
<g id="edge31" class="edge"><title>[root] module.lamp.azurerm_public_ip.pip&#45;&gt;[root] module.lamp.var.number_of_servers</title>
<path fill="none" stroke="black" d="M1329.75,-359.876C1311.55,-350.442 1288.79,-338.639 1269.39,-328.579"/>
<polygon fill="black" stroke="black" points="1270.94,-325.443 1260.46,-323.947 1267.72,-331.658 1270.94,-325.443"/>
</g>
<!-- [root] module.lamp.var.expose_pip -->
<g id="node32" class="node"><title>[root] module.lamp.var.expose_pip</title>
<ellipse fill="none" stroke="black" cx="1625.77" cy="-306" rx="170.87" ry="18"/>
<text text-anchor="middle" x="1625.77" y="-302.3" font-family="Times,serif" font-size="14.00">[root] module.lamp.var.expose_pip</text>
</g>
<!-- [root] module.lamp.azurerm_public_ip.pip&#45;&gt;[root] module.lamp.var.expose_pip -->
<g id="edge30" class="edge"><title>[root] module.lamp.azurerm_public_ip.pip&#45;&gt;[root] module.lamp.var.expose_pip</title>
<path fill="none" stroke="black" d="M1426.77,-359.966C1465.96,-349.535 1516.13,-336.183 1556.28,-325.495"/>
<polygon fill="black" stroke="black" points="1557.24,-328.863 1566,-322.909 1555.44,-322.098 1557.24,-328.863"/>
</g>
<!-- [root] module.lamp.var.pip_domain_name_label -->
<g id="node33" class="node"><title>[root] module.lamp.var.pip_domain_name_label</title>
<ellipse fill="none" stroke="black" cx="2045.77" cy="-306" rx="230.959" ry="18"/>
<text text-anchor="middle" x="2045.77" y="-302.3" font-family="Times,serif" font-size="14.00">[root] module.lamp.var.pip_domain_name_label</text>
</g>
<!-- [root] module.lamp.azurerm_public_ip.pip&#45;&gt;[root] module.lamp.var.pip_domain_name_label -->
<g id="edge32" class="edge"><title>[root] module.lamp.azurerm_public_ip.pip&#45;&gt;[root] module.lamp.var.pip_domain_name_label</title>
<path fill="none" stroke="black" d="M1499.37,-360.913C1502.2,-360.604 1505,-360.299 1507.77,-360 1638.08,-345.944 1786.3,-331.453 1894.13,-321.184"/>
<polygon fill="black" stroke="black" points="1894.48,-324.666 1904.1,-320.234 1893.82,-317.697 1894.48,-324.666"/>
</g>
<!-- [root] module.lamp.var.vm_name -->
<g id="node34" class="node"><title>[root] module.lamp.var.vm_name</title>
<ellipse fill="none" stroke="black" cx="2458.77" cy="-306" rx="163.571" ry="18"/>
<text text-anchor="middle" x="2458.77" y="-302.3" font-family="Times,serif" font-size="14.00">[root] module.lamp.var.vm_name</text>
</g>
<!-- [root] module.lamp.azurerm_public_ip.pip&#45;&gt;[root] module.lamp.var.vm_name -->
<g id="edge33" class="edge"><title>[root] module.lamp.azurerm_public_ip.pip&#45;&gt;[root] module.lamp.var.vm_name</title>
<path fill="none" stroke="black" d="M1499.36,-360.715C1502.18,-360.466 1504.99,-360.227 1507.77,-360 1852.77,-331.829 1940.52,-348.934 2285.77,-324 2301.72,-322.848 2318.49,-321.444 2335.04,-319.942"/>
<polygon fill="black" stroke="black" points="2335.68,-323.399 2345.31,-318.996 2335.03,-316.428 2335.68,-323.399"/>
</g>
<!-- [root] module.lamp.var.location -->
<g id="node35" class="node"><title>[root] module.lamp.var.location</title>
<ellipse fill="none" stroke="black" cx="1184.77" cy="-162" rx="156.772" ry="18"/>
<text text-anchor="middle" x="1184.77" y="-158.3" font-family="Times,serif" font-size="14.00">[root] module.lamp.var.location</text>
</g>
<!-- [root] module.lamp.azurerm_resource_group.rg&#45;&gt;[root] module.lamp.var.location -->
<g id="edge34" class="edge"><title>[root] module.lamp.azurerm_resource_group.rg&#45;&gt;[root] module.lamp.var.location</title>
<path fill="none" stroke="black" d="M987.201,-287.983C1022.4,-280.148 1059.05,-268.707 1090.77,-252 1120.66,-236.261 1147.85,-208.327 1165.21,-187.942"/>
<polygon fill="black" stroke="black" points="1168.11,-189.926 1171.81,-179.997 1162.73,-185.454 1168.11,-189.926"/>
</g>
<!-- [root] module.lamp.var.resource_group -->
<g id="node36" class="node"><title>[root] module.lamp.var.resource_group</title>
<ellipse fill="none" stroke="black" cx="889.771" cy="-234" rx="192.266" ry="18"/>
<text text-anchor="middle" x="889.771" y="-230.3" font-family="Times,serif" font-size="14.00">[root] module.lamp.var.resource_group</text>
</g>
<!-- [root] module.lamp.azurerm_resource_group.rg&#45;&gt;[root] module.lamp.var.resource_group -->
<g id="edge35" class="edge"><title>[root] module.lamp.azurerm_resource_group.rg&#45;&gt;[root] module.lamp.var.resource_group</title>
<path fill="none" stroke="black" d="M855.142,-287.697C860.49,-279.559 866.976,-269.689 872.882,-260.701"/>
<polygon fill="black" stroke="black" points="875.965,-262.384 878.531,-252.104 870.115,-258.539 875.965,-262.384"/>
</g>
<!-- [root] module.lamp.azurerm_virtual_machine.vm -->
<g id="node10" class="node"><title>[root] module.lamp.azurerm_virtual_machine.vm</title>
<polygon fill="none" stroke="black" points="2650.27,-540 2327.27,-540 2327.27,-504 2650.27,-504 2650.27,-540"/>
<text text-anchor="middle" x="2488.77" y="-518.3" font-family="Times,serif" font-size="14.00">module.lamp.azurerm_virtual_machine.vm</text>
</g>
<!-- [root] module.lamp.azurerm_virtual_machine.vm&#45;&gt;[root] module.lamp.azurerm_availability_set.vmavset -->
<g id="edge36" class="edge"><title>[root] module.lamp.azurerm_virtual_machine.vm&#45;&gt;[root] module.lamp.azurerm_availability_set.vmavset</title>
<path fill="none" stroke="black" d="M2327.27,-517.06C2082.72,-510.505 1603.62,-495.367 1185.64,-468.036"/>
<polygon fill="black" stroke="black" points="1185.68,-464.531 1175.47,-467.367 1185.22,-471.516 1185.68,-464.531"/>
</g>
<!-- [root] module.lamp.azurerm_virtual_machine.vm&#45;&gt;[root] module.lamp.azurerm_network_interface.nic -->
<g id="edge37" class="edge"><title>[root] module.lamp.azurerm_virtual_machine.vm&#45;&gt;[root] module.lamp.azurerm_network_interface.nic</title>
<path fill="none" stroke="black" d="M2327.2,-513.906C2140.62,-505.27 1824.23,-489.263 1541.9,-468.069"/>
<polygon fill="black" stroke="black" points="1542.11,-464.574 1531.87,-467.313 1541.58,-471.555 1542.11,-464.574"/>
</g>
<!-- [root] module.lamp.var.admin_username -->
<g id="node37" class="node"><title>[root] module.lamp.var.admin_username</title>
<ellipse fill="none" stroke="black" cx="1748.77" cy="-450" rx="198.765" ry="18"/>
<text text-anchor="middle" x="1748.77" y="-446.3" font-family="Times,serif" font-size="14.00">[root] module.lamp.var.admin_username</text>
</g>
<!-- [root] module.lamp.azurerm_virtual_machine.vm&#45;&gt;[root] module.lamp.var.admin_username -->
<g id="edge38" class="edge"><title>[root] module.lamp.azurerm_virtual_machine.vm&#45;&gt;[root] module.lamp.var.admin_username</title>
<path fill="none" stroke="black" d="M2326.83,-505.681C2196.58,-493.361 2015.37,-476.219 1890.74,-464.429"/>
<polygon fill="black" stroke="black" points="1891.02,-460.941 1880.74,-463.483 1890.36,-467.91 1891.02,-460.941"/>
</g>
<!-- [root] module.lamp.var.hostname -->
<g id="node38" class="node"><title>[root] module.lamp.var.hostname</title>
<ellipse fill="none" stroke="black" cx="2130.77" cy="-450" rx="165.171" ry="18"/>
<text text-anchor="middle" x="2130.77" y="-446.3" font-family="Times,serif" font-size="14.00">[root] module.lamp.var.hostname</text>
</g>
<!-- [root] module.lamp.azurerm_virtual_machine.vm&#45;&gt;[root] module.lamp.var.hostname -->
<g id="edge39" class="edge"><title>[root] module.lamp.azurerm_virtual_machine.vm&#45;&gt;[root] module.lamp.var.hostname</title>
<path fill="none" stroke="black" d="M2401.65,-503.966C2345.62,-493.009 2273.1,-478.829 2217.2,-467.899"/>
<polygon fill="black" stroke="black" points="2217.8,-464.451 2207.32,-465.967 2216.46,-471.321 2217.8,-464.451"/>
</g>
<!-- [root] module.lamp.var.image_offer -->
<g id="node39" class="node"><title>[root] module.lamp.var.image_offer</title>
<ellipse fill="none" stroke="black" cx="2488.77" cy="-450" rx="174.669" ry="18"/>
<text text-anchor="middle" x="2488.77" y="-446.3" font-family="Times,serif" font-size="14.00">[root] module.lamp.var.image_offer</text>
</g>
<!-- [root] module.lamp.azurerm_virtual_machine.vm&#45;&gt;[root] module.lamp.var.image_offer -->
<g id="edge40" class="edge"><title>[root] module.lamp.azurerm_virtual_machine.vm&#45;&gt;[root] module.lamp.var.image_offer</title>
<path fill="none" stroke="black" d="M2488.77,-503.697C2488.77,-495.983 2488.77,-486.712 2488.77,-478.112"/>
<polygon fill="black" stroke="black" points="2492.27,-478.104 2488.77,-468.104 2485.27,-478.104 2492.27,-478.104"/>
</g>
<!-- [root] module.lamp.var.image_publisher -->
<g id="node40" class="node"><title>[root] module.lamp.var.image_publisher</title>
<ellipse fill="none" stroke="black" cx="2877.77" cy="-450" rx="196.065" ry="18"/>
<text text-anchor="middle" x="2877.77" y="-446.3" font-family="Times,serif" font-size="14.00">[root] module.lamp.var.image_publisher</text>
</g>
<!-- [root] module.lamp.azurerm_virtual_machine.vm&#45;&gt;[root] module.lamp.var.image_publisher -->
<g id="edge41" class="edge"><title>[root] module.lamp.azurerm_virtual_machine.vm&#45;&gt;[root] module.lamp.var.image_publisher</title>
<path fill="none" stroke="black" d="M2583.43,-503.966C2644.04,-493.059 2722.39,-478.96 2783.02,-468.05"/>
<polygon fill="black" stroke="black" points="2783.75,-471.475 2792.97,-466.259 2782.51,-464.586 2783.75,-471.475"/>
</g>
<!-- [root] module.lamp.var.image_sku -->
<g id="node41" class="node"><title>[root] module.lamp.var.image_sku</title>
<ellipse fill="none" stroke="black" cx="3260.77" cy="-450" rx="168.97" ry="18"/>
<text text-anchor="middle" x="3260.77" y="-446.3" font-family="Times,serif" font-size="14.00">[root] module.lamp.var.image_sku</text>
</g>
<!-- [root] module.lamp.azurerm_virtual_machine.vm&#45;&gt;[root] module.lamp.var.image_sku -->
<g id="edge42" class="edge"><title>[root] module.lamp.azurerm_virtual_machine.vm&#45;&gt;[root] module.lamp.var.image_sku</title>
<path fill="none" stroke="black" d="M2650.46,-506.847C2769.92,-496.324 2936.5,-481.51 3082.77,-468 3097.99,-466.595 3113.93,-465.101 3129.76,-463.606"/>
<polygon fill="black" stroke="black" points="3130.51,-467.05 3140.14,-462.624 3129.85,-460.082 3130.51,-467.05"/>
</g>
<!-- [root] module.lamp.var.image_version -->
<g id="node42" class="node"><title>[root] module.lamp.var.image_version</title>
<ellipse fill="none" stroke="black" cx="3634.77" cy="-450" rx="186.567" ry="18"/>
<text text-anchor="middle" x="3634.77" y="-446.3" font-family="Times,serif" font-size="14.00">[root] module.lamp.var.image_version</text>
</g>
<!-- [root] module.lamp.azurerm_virtual_machine.vm&#45;&gt;[root] module.lamp.var.image_version -->
<g id="edge43" class="edge"><title>[root] module.lamp.azurerm_virtual_machine.vm&#45;&gt;[root] module.lamp.var.image_version</title>
<path fill="none" stroke="black" d="M2650.66,-513.488C2839.81,-504.359 3162.16,-487.707 3438.77,-468 3456.75,-466.719 3475.64,-465.244 3494.31,-463.709"/>
<polygon fill="black" stroke="black" points="3494.67,-467.192 3504.35,-462.877 3494.09,-460.216 3494.67,-467.192"/>
</g>
<!-- [root] module.lamp.var.ssh_public_key -->
<g id="node43" class="node"><title>[root] module.lamp.var.ssh_public_key</title>
<ellipse fill="none" stroke="black" cx="4029.77" cy="-450" rx="190.366" ry="18"/>
<text text-anchor="middle" x="4029.77" y="-446.3" font-family="Times,serif" font-size="14.00">[root] module.lamp.var.ssh_public_key</text>
</g>
<!-- [root] module.lamp.azurerm_virtual_machine.vm&#45;&gt;[root] module.lamp.var.ssh_public_key -->
<g id="edge44" class="edge"><title>[root] module.lamp.azurerm_virtual_machine.vm&#45;&gt;[root] module.lamp.var.ssh_public_key</title>
<path fill="none" stroke="black" d="M2650.28,-517.007C2902.47,-510.235 3405.05,-494.577 3830.77,-468 3849.41,-466.836 3869.02,-465.41 3888.36,-463.883"/>
<polygon fill="black" stroke="black" points="3888.75,-467.362 3898.44,-463.076 3888.19,-460.385 3888.75,-467.362"/>
</g>
<!-- [root] module.lamp.var.tags -->
<g id="node44" class="node"><title>[root] module.lamp.var.tags</title>
<ellipse fill="none" stroke="black" cx="4008.77" cy="-234" rx="139.976" ry="18"/>
<text text-anchor="middle" x="4008.77" y="-230.3" font-family="Times,serif" font-size="14.00">[root] module.lamp.var.tags</text>
</g>
<!-- [root] module.lamp.azurerm_virtual_machine.vm&#45;&gt;[root] module.lamp.var.tags -->
<g id="edge45" class="edge"><title>[root] module.lamp.azurerm_virtual_machine.vm&#45;&gt;[root] module.lamp.var.tags</title>
<path fill="none" stroke="black" d="M2650.3,-519.033C3076.63,-513.459 4201.5,-496.117 4228.77,-468 4303.91,-390.538 4138.87,-296.689 4054.48,-255.762"/>
<polygon fill="black" stroke="black" points="4055.88,-252.55 4045.35,-251.386 4052.86,-258.863 4055.88,-252.55"/>
</g>
<!-- [root] module.lamp.var.vm_size -->
<g id="node45" class="node"><title>[root] module.lamp.var.vm_size</title>
<ellipse fill="none" stroke="black" cx="4432.77" cy="-450" rx="156.772" ry="18"/>
<text text-anchor="middle" x="4432.77" y="-446.3" font-family="Times,serif" font-size="14.00">[root] module.lamp.var.vm_size</text>
</g>
<!-- [root] module.lamp.azurerm_virtual_machine.vm&#45;&gt;[root] module.lamp.var.vm_size -->
<g id="edge46" class="edge"><title>[root] module.lamp.azurerm_virtual_machine.vm&#45;&gt;[root] module.lamp.var.vm_size</title>
<path fill="none" stroke="black" d="M2650.29,-519.909C2962.12,-516.975 3668.66,-506.301 4261.77,-468 4278.57,-466.915 4296.27,-465.483 4313.66,-463.908"/>
<polygon fill="black" stroke="black" points="4314.22,-467.372 4323.85,-462.967 4313.57,-460.402 4314.22,-467.372"/>
</g>
<!-- [root] var.org -->
<g id="node19" class="node"><title>[root] var.org</title>
<ellipse fill="none" stroke="black" cx="837.771" cy="-18" rx="72.2875" ry="18"/>
<text text-anchor="middle" x="837.771" y="-14.3" font-family="Times,serif" font-size="14.00">[root] var.org</text>
</g>
<!-- [root] local.fqResourceGroup&#45;&gt;[root] var.org -->
<g id="edge13" class="edge"><title>[root] local.fqResourceGroup&#45;&gt;[root] var.org</title>
<path fill="none" stroke="black" d="M905.985,-72.055C894.207,-62.894 879.507,-51.4606 866.772,-41.5559"/>
<polygon fill="black" stroke="black" points="868.78,-38.6837 858.738,-35.307 864.482,-44.2092 868.78,-38.6837"/>
</g>
<!-- [root] var.project -->
<g id="node20" class="node"><title>[root] var.project</title>
<ellipse fill="none" stroke="black" cx="1017.77" cy="-18" rx="89.8845" ry="18"/>
<text text-anchor="middle" x="1017.77" y="-14.3" font-family="Times,serif" font-size="14.00">[root] var.project</text>
</g>
<!-- [root] local.fqResourceGroup&#45;&gt;[root] var.project -->
<g id="edge14" class="edge"><title>[root] local.fqResourceGroup&#45;&gt;[root] var.project</title>
<path fill="none" stroke="black" d="M949.558,-72.055C961.251,-62.9604 975.823,-51.6262 988.494,-41.7714"/>
<polygon fill="black" stroke="black" points="990.751,-44.4496 996.496,-35.5475 986.454,-38.9242 990.751,-44.4496"/>
</g>
<!-- [root] meta.count&#45;boundary (count boundary fixup) -->
<g id="node21" class="node"><title>[root] meta.count&#45;boundary (count boundary fixup)</title>
<ellipse fill="none" stroke="black" cx="1230.77" cy="-666" rx="247.756" ry="18"/>
<text text-anchor="middle" x="1230.77" y="-662.3" font-family="Times,serif" font-size="14.00">[root] meta.count&#45;boundary (count boundary fixup)</text>
</g>
<!-- [root] meta.count&#45;boundary (count boundary fixup)&#45;&gt;[root] azurerm_storage_account.stor -->
<g id="edge15" class="edge"><title>[root] meta.count&#45;boundary (count boundary fixup)&#45;&gt;[root] azurerm_storage_account.stor</title>
<path fill="none" stroke="black" d="M1077.41,-651.835C964.139,-641.801 806.229,-627.167 667.771,-612 665.236,-611.722 662.675,-611.438 660.094,-611.148"/>
<polygon fill="black" stroke="black" points="660.388,-607.659 650.056,-610.005 659.596,-614.614 660.388,-607.659"/>
</g>
<!-- [root] meta.count&#45;boundary (count boundary fixup)&#45;&gt;[root] data.azurerm_client_config.current -->
<g id="edge16" class="edge"><title>[root] meta.count&#45;boundary (count boundary fixup)&#45;&gt;[root] data.azurerm_client_config.current</title>
<path fill="none" stroke="black" d="M1137,-649.334C1073.9,-638.792 990.388,-624.841 923.79,-613.714"/>
<polygon fill="black" stroke="black" points="924.112,-610.22 913.672,-612.024 922.959,-617.124 924.112,-610.22"/>
</g>
<!-- [root] module.lamp.output.availability_set_id -->
<g id="node22" class="node"><title>[root] module.lamp.output.availability_set_id</title>
<ellipse fill="none" stroke="black" cx="983.771" cy="-522" rx="219.861" ry="18"/>
<text text-anchor="middle" x="983.771" y="-518.3" font-family="Times,serif" font-size="14.00">[root] module.lamp.output.availability_set_id</text>
</g>
<!-- [root] meta.count&#45;boundary (count boundary fixup)&#45;&gt;[root] module.lamp.output.availability_set_id -->
<g id="edge17" class="edge"><title>[root] meta.count&#45;boundary (count boundary fixup)&#45;&gt;[root] module.lamp.output.availability_set_id</title>
<path fill="none" stroke="black" d="M1200.98,-647.871C1156.16,-622.108 1071.42,-573.387 1022.07,-545.018"/>
<polygon fill="black" stroke="black" points="1023.7,-541.918 1013.29,-539.968 1020.21,-547.987 1023.7,-541.918"/>
</g>
<!-- [root] module.lamp.output.private&#45;ip -->
<g id="node23" class="node"><title>[root] module.lamp.output.private&#45;ip</title>
<ellipse fill="none" stroke="black" cx="1401.77" cy="-522" rx="180.868" ry="18"/>
<text text-anchor="middle" x="1401.77" y="-518.3" font-family="Times,serif" font-size="14.00">[root] module.lamp.output.private&#45;ip</text>
</g>
<!-- [root] meta.count&#45;boundary (count boundary fixup)&#45;&gt;[root] module.lamp.output.private&#45;ip -->
<g id="edge18" class="edge"><title>[root] meta.count&#45;boundary (count boundary fixup)&#45;&gt;[root] module.lamp.output.private&#45;ip</title>
<path fill="none" stroke="black" d="M1238.12,-647.871C1247.27,-628.274 1264.56,-596.284 1287.77,-576 1303.45,-562.301 1323.27,-551.453 1341.97,-543.232"/>
<polygon fill="black" stroke="black" points="1343.47,-546.398 1351.33,-539.29 1340.75,-539.947 1343.47,-546.398"/>
</g>
<!-- [root] module.lamp.output.vm -->
<g id="node24" class="node"><title>[root] module.lamp.output.vm</title>
<ellipse fill="none" stroke="black" cx="1446.77" cy="-594" rx="150.273" ry="18"/>
<text text-anchor="middle" x="1446.77" y="-590.3" font-family="Times,serif" font-size="14.00">[root] module.lamp.output.vm</text>
</g>
<!-- [root] meta.count&#45;boundary (count boundary fixup)&#45;&gt;[root] module.lamp.output.vm -->
<g id="edge19" class="edge"><title>[root] meta.count&#45;boundary (count boundary fixup)&#45;&gt;[root] module.lamp.output.vm</title>
<path fill="none" stroke="black" d="M1282.23,-648.322C1313.92,-638.053 1354.65,-624.854 1387.66,-614.158"/>
<polygon fill="black" stroke="black" points="1388.76,-617.481 1397.19,-611.068 1386.6,-610.822 1388.76,-617.481"/>
</g>
<!-- [root] output.rg -->
<g id="node25" class="node"><title>[root] output.rg</title>
<ellipse fill="none" stroke="black" cx="1697.77" cy="-594" rx="83.3857" ry="18"/>
<text text-anchor="middle" x="1697.77" y="-590.3" font-family="Times,serif" font-size="14.00">[root] output.rg</text>
</g>
<!-- [root] meta.count&#45;boundary (count boundary fixup)&#45;&gt;[root] output.rg -->
<g id="edge20" class="edge"><title>[root] meta.count&#45;boundary (count boundary fixup)&#45;&gt;[root] output.rg</title>
<path fill="none" stroke="black" d="M1345.85,-650.018C1420.14,-640.03 1518.81,-626.173 1605.77,-612 1612.83,-610.85 1620.17,-609.594 1627.5,-608.301"/>
<polygon fill="black" stroke="black" points="1628.23,-611.726 1637.46,-606.522 1627,-604.835 1628.23,-611.726"/>
</g>
<!-- [root] var.dns_servers -->
<g id="node26" class="node"><title>[root] var.dns_servers</title>
<ellipse fill="none" stroke="black" cx="1911.77" cy="-594" rx="112.38" ry="18"/>
<text text-anchor="middle" x="1911.77" y="-590.3" font-family="Times,serif" font-size="14.00">[root] var.dns_servers</text>
</g>
<!-- [root] meta.count&#45;boundary (count boundary fixup)&#45;&gt;[root] var.dns_servers -->
<g id="edge21" class="edge"><title>[root] meta.count&#45;boundary (count boundary fixup)&#45;&gt;[root] var.dns_servers</title>
<path fill="none" stroke="black" d="M1387.29,-652.013C1499.47,-642.252 1654.1,-627.877 1789.77,-612 1800.07,-610.795 1810.85,-609.436 1821.55,-608.025"/>
<polygon fill="black" stroke="black" points="1822.32,-611.453 1831.77,-606.659 1821.4,-604.514 1822.32,-611.453"/>
</g>
<!-- [root] module.lamp.output.availability_set_id&#45;&gt;[root] module.lamp.azurerm_availability_set.vmavset -->
<g id="edge47" class="edge"><title>[root] module.lamp.output.availability_set_id&#45;&gt;[root] module.lamp.azurerm_availability_set.vmavset</title>
<path fill="none" stroke="black" d="M987.479,-503.697C989.132,-495.983 991.119,-486.712 992.962,-478.112"/>
<polygon fill="black" stroke="black" points="996.433,-478.616 995.106,-468.104 989.589,-477.149 996.433,-478.616"/>
</g>
<!-- [root] module.lamp.output.private&#45;ip&#45;&gt;[root] module.lamp.azurerm_network_interface.nic -->
<g id="edge48" class="edge"><title>[root] module.lamp.output.private&#45;ip&#45;&gt;[root] module.lamp.azurerm_network_interface.nic</title>
<path fill="none" stroke="black" d="M1392.13,-503.697C1387.64,-495.644 1382.21,-485.894 1377.25,-476.982"/>
<polygon fill="black" stroke="black" points="1380.23,-475.137 1372.3,-468.104 1374.11,-478.544 1380.23,-475.137"/>
</g>
<!-- [root] module.lamp.output.vm&#45;&gt;[root] module.lamp.azurerm_virtual_machine.vm -->
<g id="edge49" class="edge"><title>[root] module.lamp.output.vm&#45;&gt;[root] module.lamp.azurerm_virtual_machine.vm</title>
<path fill="none" stroke="black" d="M1551.9,-581.061C1569.86,-579.222 1588.34,-577.454 1605.77,-576 1852.55,-555.413 2138.76,-539.733 2316.83,-530.947"/>
<polygon fill="black" stroke="black" points="2317.26,-534.43 2327.08,-530.443 2316.92,-527.438 2317.26,-534.43"/>
</g>
<!-- [root] output.rg&#45;&gt;[root] azurerm_resource_group.rg -->
<g id="edge58" class="edge"><title>[root] output.rg&#45;&gt;[root] azurerm_resource_group.rg</title>
<path fill="none" stroke="black" d="M1756.12,-581.023C1767.57,-579.045 1779.51,-577.239 1790.77,-576 1947.04,-558.801 4617.77,-608.209 4617.77,-451 4617.77,-451 4617.77,-451 4617.77,-305 4617.77,-96.7641 4364.94,-237.057 4157.77,-216 3467.05,-145.795 1730.89,-233.431 1020.52,-180.058"/>
<polygon fill="black" stroke="black" points="1020.63,-176.557 1010.39,-179.283 1020.1,-183.537 1020.63,-176.557"/>
</g>
<!-- [root] var.lamp_private_ip_address -->
<g id="node48" class="node"><title>[root] var.lamp_private_ip_address</title>
<ellipse fill="none" stroke="black" cx="2813.77" cy="-306" rx="172.769" ry="18"/>
<text text-anchor="middle" x="2813.77" y="-302.3" font-family="Times,serif" font-size="14.00">[root] var.lamp_private_ip_address</text>
</g>
<!-- [root] module.lamp.var.private_ip_address&#45;&gt;[root] var.lamp_private_ip_address -->
<g id="edge53" class="edge"><title>[root] module.lamp.var.private_ip_address&#45;&gt;[root] var.lamp_private_ip_address</title>
<path fill="none" stroke="black" d="M1870.06,-365.092C1894.01,-363.28 1918.58,-361.513 1941.77,-360 2248.2,-340.006 2325.5,-346.284 2631.77,-324 2648.44,-322.787 2665.95,-321.354 2683.26,-319.842"/>
<polygon fill="black" stroke="black" points="2683.76,-323.311 2693.41,-318.944 2683.14,-316.339 2683.76,-323.311"/>
</g>
<!-- [root] module.lamp.var.virtual_network_subnet_id&#45;&gt;[root] azurerm_subnet.build -->
<g id="edge56" class="edge"><title>[root] module.lamp.var.virtual_network_subnet_id&#45;&gt;[root] azurerm_subnet.build</title>
<path fill="none" stroke="black" d="M2811.37,-361.028C2865.7,-350.522 2937.03,-336.73 2994.01,-325.71"/>
<polygon fill="black" stroke="black" points="2994.96,-329.091 3004.12,-323.756 2993.63,-322.219 2994.96,-329.091"/>
</g>
<!-- [root] var.expose_pip -->
<g id="node47" class="node"><title>[root] var.expose_pip</title>
<ellipse fill="none" stroke="black" cx="1625.77" cy="-234" rx="108.581" ry="18"/>
<text text-anchor="middle" x="1625.77" y="-230.3" font-family="Times,serif" font-size="14.00">[root] var.expose_pip</text>
</g>
<!-- [root] module.lamp.var.expose_pip&#45;&gt;[root] var.expose_pip -->
<g id="edge51" class="edge"><title>[root] module.lamp.var.expose_pip&#45;&gt;[root] var.expose_pip</title>
<path fill="none" stroke="black" d="M1625.77,-287.697C1625.77,-279.983 1625.77,-270.712 1625.77,-262.112"/>
<polygon fill="black" stroke="black" points="1629.27,-262.104 1625.77,-252.104 1622.27,-262.104 1629.27,-262.104"/>
</g>
<!-- [root] module.lamp.var.location&#45;&gt;[root] var.location -->
<g id="edge52" class="edge"><title>[root] module.lamp.var.location&#45;&gt;[root] var.location</title>
<path fill="none" stroke="black" d="M1184.77,-143.697C1184.77,-135.983 1184.77,-126.712 1184.77,-118.112"/>
<polygon fill="black" stroke="black" points="1188.27,-118.104 1184.77,-108.104 1181.27,-118.104 1188.27,-118.104"/>
</g>
<!-- [root] module.lamp.var.resource_group&#45;&gt;[root] azurerm_resource_group.rg -->
<g id="edge54" class="edge"><title>[root] module.lamp.var.resource_group&#45;&gt;[root] azurerm_resource_group.rg</title>
<path fill="none" stroke="black" d="M892.738,-215.697C894.06,-207.983 895.649,-198.712 897.124,-190.112"/>
<polygon fill="black" stroke="black" points="900.599,-190.552 898.839,-180.104 893.7,-189.369 900.599,-190.552"/>
</g>
<!-- [root] var.admin_username -->
<g id="node46" class="node"><title>[root] var.admin_username</title>
<ellipse fill="none" stroke="black" cx="3126.77" cy="-378" rx="135.676" ry="18"/>
<text text-anchor="middle" x="3126.77" y="-374.3" font-family="Times,serif" font-size="14.00">[root] var.admin_username</text>
</g>
<!-- [root] module.lamp.var.admin_username&#45;&gt;[root] var.admin_username -->
<g id="edge50" class="edge"><title>[root] module.lamp.var.admin_username&#45;&gt;[root] var.admin_username</title>
<path fill="none" stroke="black" d="M1885.49,-436.916C1909.24,-435.077 1933.71,-433.346 1956.77,-432 2411.83,-405.427 2527.25,-430.568 2981.77,-396 2995.19,-394.979 3009.29,-393.65 3023.2,-392.185"/>
<polygon fill="black" stroke="black" points="3023.71,-395.65 3033.28,-391.096 3022.96,-388.69 3023.71,-395.65"/>
</g>
<!-- [root] module.lamp.var.tags&#45;&gt;[root] var.default_tags -->
<g id="edge55" class="edge"><title>[root] module.lamp.var.tags&#45;&gt;[root] var.default_tags</title>
<path fill="none" stroke="black" d="M3961.08,-217.028C3929.72,-206.525 3888.56,-192.736 3855.66,-181.718"/>
<polygon fill="black" stroke="black" points="3856.77,-178.399 3846.17,-178.542 3854.55,-185.036 3856.77,-178.399"/>
</g>
<!-- [root] var.vm_size -->
<g id="node49" class="node"><title>[root] var.vm_size</title>
<ellipse fill="none" stroke="black" cx="4432.77" cy="-378" rx="93.6835" ry="18"/>
<text text-anchor="middle" x="4432.77" y="-374.3" font-family="Times,serif" font-size="14.00">[root] var.vm_size</text>
</g>
<!-- [root] module.lamp.var.vm_size&#45;&gt;[root] var.vm_size -->
<g id="edge57" class="edge"><title>[root] module.lamp.var.vm_size&#45;&gt;[root] var.vm_size</title>
<path fill="none" stroke="black" d="M4432.77,-431.697C4432.77,-423.983 4432.77,-414.712 4432.77,-406.112"/>
<polygon fill="black" stroke="black" points="4436.27,-406.104 4432.77,-396.104 4429.27,-406.104 4436.27,-406.104"/>
</g>
<!-- [root] provider.azurerm (close) -->
<g id="node50" class="node"><title>[root] provider.azurerm (close)</title>
<ellipse fill="none" stroke="black" cx="811.771" cy="-666" rx="153.273" ry="18"/>
<text text-anchor="middle" x="811.771" y="-662.3" font-family="Times,serif" font-size="14.00">[root] provider.azurerm (close)</text>
</g>
<!-- [root] provider.azurerm (close)&#45;&gt;[root] azurerm_storage_account.stor -->
<g id="edge59" class="edge"><title>[root] provider.azurerm (close)&#45;&gt;[root] azurerm_storage_account.stor</title>
<path fill="none" stroke="black" d="M749.63,-649.465C708.439,-639.167 654.063,-625.573 609.941,-614.542"/>
<polygon fill="black" stroke="black" points="610.666,-611.116 600.116,-612.086 608.969,-617.907 610.666,-611.116"/>
</g>
<!-- [root] provider.azurerm (close)&#45;&gt;[root] data.azurerm_client_config.current -->
<g id="edge60" class="edge"><title>[root] provider.azurerm (close)&#45;&gt;[root] data.azurerm_client_config.current</title>
<path fill="none" stroke="black" d="M811.771,-647.697C811.771,-639.983 811.771,-630.712 811.771,-622.112"/>
<polygon fill="black" stroke="black" points="815.272,-622.104 811.771,-612.104 808.272,-622.104 815.272,-622.104"/>
</g>
<!-- [root] provider.azurerm (close)&#45;&gt;[root] module.lamp.azurerm_virtual_machine.vm -->
<g id="edge61" class="edge"><title>[root] provider.azurerm (close)&#45;&gt;[root] module.lamp.azurerm_virtual_machine.vm</title>
<path fill="none" stroke="black" d="M877.549,-649.66C968.983,-629.036 1139.94,-592.997 1287.77,-576 1652.46,-534.071 2082.95,-524.738 2316.67,-523.004"/>
<polygon fill="black" stroke="black" points="2316.99,-526.502 2326.97,-522.931 2316.94,-519.502 2316.99,-526.502"/>
</g>
<!-- [root] root -->
<g id="node51" class="node"><title>[root] root</title>
<ellipse fill="none" stroke="black" cx="1020.77" cy="-738" rx="58.4896" ry="18"/>
<text text-anchor="middle" x="1020.77" y="-734.3" font-family="Times,serif" font-size="14.00">[root] root</text>
</g>
<!-- [root] root&#45;&gt;[root] meta.count&#45;boundary (count boundary fixup) -->
<g id="edge62" class="edge"><title>[root] root&#45;&gt;[root] meta.count&#45;boundary (count boundary fixup)</title>
<path fill="none" stroke="black" d="M1059.29,-724.161C1090.46,-713.771 1134.91,-698.954 1170.74,-687.009"/>
<polygon fill="black" stroke="black" points="1172.22,-690.205 1180.6,-683.722 1170.01,-683.564 1172.22,-690.205"/>
</g>
<!-- [root] root&#45;&gt;[root] provider.azurerm (close) -->
<g id="edge63" class="edge"><title>[root] root&#45;&gt;[root] provider.azurerm (close)</title>
<path fill="none" stroke="black" d="M982.438,-724.161C950.984,-713.626 905.945,-698.541 870.032,-686.513"/>
<polygon fill="black" stroke="black" points="870.757,-683.065 860.163,-683.208 868.534,-689.703 870.757,-683.065"/>
</g>
</g>
</svg>
